<svg xmlns="http://www.w3.org/2000/svg" xmlns:xlink="http://www.w3.org/1999/xlink" width="560" height="591" viewBox="0 0 560 591">
    <defs>
        <path id="a" d="M0 .646h601v347H0z"/>
        <path id="c" d="M.646 0h601v417h-601z"/>
        <filter id="e" width="120.8%" height="113.1%" x="-10.1%" y="-6.5%" filterUnits="objectBoundingBox">
            <feOffset dy="2" in="SourceAlpha" result="shadowOffsetOuter1"/>
            <feGaussianBlur in="shadowOffsetOuter1" result="shadowBlurOuter1" stdDeviation="4"/>
            <feColorMatrix in="shadowBlurOuter1" result="shadowMatrixOuter1" values="0 0 0 0 0.470588235 0 0 0 0 0.156862745 0 0 0 0 0.117647059 0 0 0 0.257102273 0"/>
            <feMerge>
                <feMergeNode in="shadowMatrixOuter1"/>
                <feMergeNode in="SourceGraphic"/>
            </feMerge>
        </filter>
        <path id="f" d="M0 0h3.81v1.519H0z"/>
        <filter id="h" width="141.8%" height="150.4%" x="-20.9%" y="-24.9%" filterUnits="objectBoundingBox">
            <feOffset dy="2" in="SourceAlpha" result="shadowOffsetOuter1"/>
            <feGaussianBlur in="shadowOffsetOuter1" result="shadowBlurOuter1" stdDeviation="4"/>
            <feColorMatrix in="shadowBlurOuter1" result="shadowMatrixOuter1" values="0 0 0 0 0.470588235 0 0 0 0 0.156862745 0 0 0 0 0.117647059 0 0 0 0.257102273 0"/>
            <feMerge>
                <feMergeNode in="shadowMatrixOuter1"/>
                <feMergeNode in="SourceGraphic"/>
            </feMerge>
        </filter>
        <path id="i" d="M0 0h17.192v6.417H0z"/>
        <linearGradient id="k" x1="50%" x2="50%" y1="0%" y2="72.028%">
            <stop offset="0%" stop-color="#461D18"/>
            <stop offset="100%" stop-color="#461D18" stop-opacity="0"/>
        </linearGradient>
        <filter id="l" width="141.7%" height="150%" x="-20.8%" y="-25%" filterUnits="objectBoundingBox">
            <feOffset dy="2" in="SourceAlpha" result="shadowOffsetOuter1"/>
            <feGaussianBlur in="shadowOffsetOuter1" result="shadowBlurOuter1" stdDeviation="4"/>
            <feColorMatrix in="shadowBlurOuter1" result="shadowMatrixOuter1" values="0 0 0 0 0.470588235 0 0 0 0 0.156862745 0 0 0 0 0.117647059 0 0 0 0.257102273 0"/>
            <feMerge>
                <feMergeNode in="shadowMatrixOuter1"/>
                <feMergeNode in="SourceGraphic"/>
            </feMerge>
        </filter>
        <rect id="m" width="95.588" height="79.766" x=".037" y=".128" rx="4.8"/>
        <linearGradient id="o" x1="50%" x2="50%" y1="0%" y2="100%">
            <stop offset="0%" stop-color="#461D18"/>
            <stop offset="100%" stop-color="#461D18" stop-opacity="0"/>
        </linearGradient>
        <filter id="p" width="141.8%" height="150.4%" x="-20.9%" y="-24.9%" filterUnits="objectBoundingBox">
            <feOffset dy="2" in="SourceAlpha" result="shadowOffsetOuter1"/>
            <feGaussianBlur in="shadowOffsetOuter1" result="shadowBlurOuter1" stdDeviation="4"/>
            <feColorMatrix in="shadowBlurOuter1" result="shadowMatrixOuter1" values="0 0 0 0 0.470588235 0 0 0 0 0.156862745 0 0 0 0 0.117647059 0 0 0 0.257102273 0"/>
            <feMerge>
                <feMergeNode in="shadowMatrixOuter1"/>
                <feMergeNode in="SourceGraphic"/>
            </feMerge>
        </filter>
        <rect id="q" width="95.906" height="80.032" rx="4.8"/>
        <linearGradient id="s" x1="50%" x2="50%" y1="0%" y2="100%">
            <stop offset="0%" stop-color="#461D18"/>
            <stop offset="100%" stop-color="#461D18" stop-opacity="0"/>
        </linearGradient>
        <filter id="t" width="141.8%" height="150.4%" x="-20.9%" y="-24.9%" filterUnits="objectBoundingBox">
            <feOffset dy="2" in="SourceAlpha" result="shadowOffsetOuter1"/>
            <feGaussianBlur in="shadowOffsetOuter1" result="shadowBlurOuter1" stdDeviation="4"/>
            <feColorMatrix in="shadowBlurOuter1" result="shadowMatrixOuter1" values="0 0 0 0 0.470588235 0 0 0 0 0.156862745 0 0 0 0 0.117647059 0 0 0 0.257102273 0"/>
            <feMerge>
                <feMergeNode in="shadowMatrixOuter1"/>
                <feMergeNode in="SourceGraphic"/>
            </feMerge>
        </filter>
        <rect id="u" width="95.906" height="80.032" rx="4.8"/>
    </defs>
    <g fill="none" fill-rule="evenodd">
        <path fill="#FFF" d="M-127-96h1280v705H-127z"/>
        <path fill="#EF6B5D" d="M-127-96h601v708h-601z"/>
        <g transform="translate(-127 -96.646)">
            <mask id="b" fill="#fff">
                <use xlink:href="#a"/>
            </mask>
            <path fill="#8F4037" d="M502.354-154v469h-469z" mask="url(#b)" transform="rotate(172 267.854 80.5)"/>
        </g>
        <g transform="translate(-127.646 192)">
            <mask id="d" fill="#fff">
                <use xlink:href="#c"/>
            </mask>
            <path fill="#8F4037" d="M188 37.446v469h-469z" mask="url(#d)" transform="rotate(-8 -46.5 271.946)"/>
        </g>
        <path fill="#78281E" d="M355.24 45.953l52.724-31.789 49.643 19.824 101.662 241.575-73.459 35.134-66.136-196.979 26.026 162.19 45.288 63.98-173.63-24.401-173.629-24.402 61.17-49.02L274.62 93.333 156.753 264.45l-60.93-54.021L260.136 6.235 313.32.863l41.92 45.09z"/>
        <g filter="url(#e)" transform="rotate(-9 1519.319 80.647)">
            <rect width="154.649" height="286.914" fill="#B3493D" rx="13.2"/>
            <path fill="#FFF" d="M49.85 7.203v.52a6.844 6.844 0 0 0 6.845 6.845H98.05a6.844 6.844 0 0 0 6.844-6.844v-.521h34.52a6.844 6.844 0 0 1 6.844 6.844v258.82a6.844 6.844 0 0 1-6.844 6.844H14.037a6.844 6.844 0 0 1-6.844-6.844V14.047a6.844 6.844 0 0 1 6.844-6.844h35.814z"/>
            <path fill="#FFC0BA" d="M7.193 49.22h139.064v180.428H7.193z"/>
            <path fill="#E06153" d="M7.193 155.279h139.064v74.66H7.193z"/>
            <path stroke="#D88076" stroke-width="1.2" d="M109.321 167.065l.654-33.259"/>
            <path fill="#FF9E93" d="M76.065 209.14l7.22-1.273 1.71 9.701-18.641 3.287c.256-2.36 1.423-3.723 3.503-4.09 2.08-.366 3.733-1.168 4.962-2.404.512-.585.736-1.063.67-1.434l-.63-3.574 1.206-.213z"/>
            <path fill="#7B2C22" d="M66.244 220.72l.288 1.635 18.89-3.331-.289-1.635z"/>
            <path fill="#FF9E93" d="M53.836 186.353l6.697-2.982 4.006 9-17.291 7.698c-.323-2.351.48-3.956 2.409-4.815 1.929-.86 3.34-2.037 4.233-3.534.356-.691.457-1.21.303-1.553l-1.476-3.316 1.12-.498z"/>
            <path fill="#7B2C22" d="M47.108 199.965l.675 1.516 17.523-7.801-.675-1.516z"/>
            <g transform="translate(38.14 100.528)">
                <path fill="#C25144" d="M96.254 55.005L85.158 39.053l-6.165 4.033 11.095 15.951a3.79 3.79 0 0 0 5.186 1.008 3.58 3.58 0 0 0 .98-5.04zM19.92 6.652l19.206 5.34-2.05 6.933-19.207-5.34a3.556 3.556 0 0 1-2.457-4.435 3.674 3.674 0 0 1 4.507-2.498z"/>
                <path fill="#F0AEA7" d="M41.825 45.677l-.612 2.432-31.768 1.895-8.516 47.79 24.807-16.812-1.92-19.23 18.728-5.103-12.61 25.974-2.996 31.1 25.366-6.83-8.252-24.27 18.735-28.94z"/>
                <ellipse cx="64.606" cy="7.547" fill="#C25144" rx="5.458" ry="6.453"/>
                <g transform="rotate(-27 25.46 -.984)">
                    <g transform="translate(5.888 2.223)">
                        <mask id="g" fill="#fff">
                            <use xlink:href="#f"/>
                        </mask>
                        <path fill="#9E3225" d="M1.905 6.299c-1.722 0-3.117-1.327-3.117-2.964S.183.37 1.905.37c1.721 0 3.117 1.327 3.117 2.964S3.626 6.299 1.905 6.299zm0-.37c1.53 0 2.77-1.162 2.77-2.594 0-1.433-1.24-2.594-2.77-2.594s-2.77 1.161-2.77 2.594c0 1.432 1.24 2.593 2.77 2.593z" mask="url(#g)"/>
                    </g>
                    <path fill="#9E3225" d="M3.117 5.928C1.396 5.928 0 4.601 0 2.964S1.396 0 3.117 0s3.117 1.327 3.117 2.964-1.396 2.964-3.117 2.964zm0-.37c1.53 0 2.77-1.161 2.77-2.594 0-1.432-1.24-2.593-2.77-2.593S.347 1.53.347 2.964s1.24 2.594 2.77 2.594zM12.468 5.928c-1.722 0-3.117-1.327-3.117-2.964S10.746 0 12.468 0c1.721 0 3.117 1.327 3.117 2.964s-1.396 2.964-3.117 2.964zm0-.37c1.53 0 2.77-1.161 2.77-2.594 0-1.432-1.24-2.593-2.77-2.593s-2.77 1.16-2.77 2.593 1.24 2.594 2.77 2.594z"/>
                    <ellipse cx="3.117" cy="2.964" fill="#461D18" rx="2.771" ry="2.594"/>
                    <ellipse cx="12.468" cy="2.964" fill="#461D18" rx="2.771" ry="2.594"/>
                </g>
                <path fill="#78281E" d="M56.013 24.305L24.881 26.06l-3.333-19.1 39.655 9.671 1.601 1.203 6.172-2.219H73.6l23.148 39.858-22.096 1.935-2.885-24.491-4.124 11.556v12.935L41.48 45.789l14.533-21.484z"/>
                <path stroke="#D88076" stroke-width="1.2" d="M63.637 63.432c3.5-27.868 5.476-42.975 5.928-45.323.678-3.521 2.775-3.678 2.956-2.499"/>
            </g>
            <path fill="#FFF" d="M145.636 84.565v8.179h-16.162c0-2.469 2.45-4.538 5.744-5.085.968-2.103 3.792-3.626 7.125-3.626 1.182 0 2.3.192 3.293.532zm-3.103 4.695c.143.111.28.227.409.348.13-.12.266-.237.409-.348h-.818zM7.193 105.85a10.527 10.527 0 0 1 2.095-.208c3.264 0 6.04 1.46 7.062 3.495 3.91.172 7.005 2.441 7.005 5.215H7.193v-8.502zm2.285 5.018c.143.112.28.228.409.348.129-.12.265-.236.408-.348h-.817z"/>
            <g fill="#FFF" opacity=".8">
                <path d="M30.681 78.13c0-6.185 7.422-11.2 16.577-11.2 9.155 0 16.576 5.015 16.576 11.2H30.681z"/>
                <path d="M57.203 78.13c0-6.185 7.422-11.2 16.577-11.2 9.155 0 16.576 5.015 16.576 11.2H57.203z"/>
                <path d="M42.616 70.664c0-6.185 7.422-11.2 16.577-11.2 9.155 0 16.576 5.015 16.576 11.2H42.616z"/>
            </g>
            <g transform="rotate(15 -565.134 423.762)">
                <rect width="23.354" height="9.354" x=".311" y="1.559" fill="#EC958C" rx="1.2"/>
                <path fill="#D88076" d="M11.988 6.984l-.003.001v-.002L.865 3.744A1.2 1.2 0 0 1 0 2.592V1.2A1.2 1.2 0 0 1 1.2 0H22.777a1.2 1.2 0 0 1 1.2 1.2v1.392a1.2 1.2 0 0 1-.865 1.152l-11.12 3.239v.002l-.004-.001z"/>
            </g>
            <path fill="#78281E" d="M18.249 38.31h39.783v3.734H18.249z"/>
            <path fill="#C25144" d="M18.249 251.092h39.783v2.489H18.249z"/>
            <path fill="#E5938A" d="M18.249 257.313h118.107v1.244H18.249zM18.249 263.535h79.567v1.244H18.249z"/>
            <path fill="#E5938A" fill-rule="nonzero" d="M23.505 235.77a2.842 2.842 0 0 0-1.001-.647 3.124 3.124 0 0 0-2.246.002c-.377.144-.717.36-1.012.65-.326.309-.58.685-.757 1.108-.16.413-.24.848-.24 1.276 0 .422.078.844.234 1.262.158.41.417.792.75 1.121l4.253 4.185a.47.47 0 0 0 .352.143.48.48 0 0 0 .361-.154l4.242-4.174a3.24 3.24 0 0 0 .757-1.108c.161-.431.24-.853.24-1.275 0-.428-.08-.863-.236-1.266a2.895 2.895 0 0 0-.77-1.128 3.123 3.123 0 0 0-1.005-.64 3.156 3.156 0 0 0-2.261 0c-.377.144-.717.36-1.012.65l-.313.314-.336-.319zm-4.598 2.389c0-.336.064-.68.186-.996.135-.324.334-.618.593-.864.233-.228.497-.396.795-.51a2.51 2.51 0 0 1 1.807.001c.283.105.539.273.778.506l.402.38a.535.535 0 0 0 .75.002l.383-.386c.227-.22.49-.389.788-.503a2.542 2.542 0 0 1 1.815 0c.282.108.552.282.799.512.27.245.47.538.59.858.123.32.187.664.187 1 0 .33-.062.663-.188 1-.133.32-.332.613-.591.859l-4.164 4.097-4.158-4.093a2.511 2.511 0 0 1-.585-.866 2.842 2.842 0 0 1-.187-.997zM44.349 242.98a.31.31 0 0 1-.415.328l-1.384-.504a4.353 4.353 0 0 1-6.896-3.533 4.353 4.353 0 0 1 4.351-4.356 4.353 4.353 0 0 1 4.089 5.85l.255 2.215zm-.881-2.22l.019-.147c.163-.424.248-.877.248-1.343a3.731 3.731 0 0 0-3.73-3.733 3.731 3.731 0 0 0-3.73 3.733 3.731 3.731 0 0 0 6.03 2.939.31.31 0 0 1 .3-.048l1.069.39-.206-1.79zM54.132 240.584l3.81-3.316-6.805 2.08 2.995 1.236zm3.899-2.552l-3.321 2.89.031.032 1.227 3.2 2.063-6.122zm-8.777 1.21l10.097-3.085-3.328 9.878-1.821-4.75-4.948-2.043z"/>
        </g>
        <g filter="url(#h)" transform="translate(323.895 215.854)">
            <rect width="95.906" height="80.032" fill="#FFEFED" rx="4.8"/>
            <g transform="translate(12.788 26.57)">
                <g transform="translate(26.57 9.39)">
                    <mask id="j" fill="#fff">
                        <use xlink:href="#i"/>
                    </mask>
                    <path fill="#9E3225" d="M8.596 26.606c-7.769 0-14.066-5.605-14.066-12.52 0-6.915 6.297-12.52 14.066-12.52 7.769 0 14.066 5.605 14.066 12.52 0 6.915-6.297 12.52-14.066 12.52zm0-1.565c6.905 0 12.503-4.905 12.503-10.955S15.501 3.13 8.596 3.13-3.907 8.035-3.907 14.086c0 6.05 5.598 10.955 12.503 10.955z" mask="url(#j)"/>
                </g>
                <path fill="#9E3225" d="M14.066 25.041C6.298 25.041 0 19.435 0 12.521 0 5.606 6.298 0 14.066 0c7.769 0 14.067 5.606 14.067 12.52 0 6.915-6.298 12.521-14.067 12.521zm0-1.565c6.906 0 12.504-4.905 12.504-10.955 0-6.051-5.598-10.956-12.504-10.956-6.905 0-12.503 4.905-12.503 10.956 0 6.05 5.598 10.955 12.503 10.955zM56.265 25.041c-7.768 0-14.066-5.606-14.066-12.52C42.199 5.606 48.497 0 56.265 0c7.769 0 14.066 5.606 14.066 12.52 0 6.915-6.297 12.521-14.066 12.521zm0-1.565c6.906 0 12.503-4.905 12.503-10.955 0-6.051-5.597-10.956-12.503-10.956-6.905 0-12.503 4.905-12.503 10.956 0 6.05 5.598 10.955 12.503 10.955z"/>
                <ellipse cx="14.066" cy="12.521" fill="#461D18" rx="12.503" ry="10.955"/>
                <ellipse cx="14.066" cy="32.705" fill="url(#k)" fill-opacity=".1" rx="8.791" ry="7.703"/>
                <ellipse cx="56.265" cy="32.705" fill="url(#k)" fill-opacity=".1" rx="8.791" ry="7.703"/>
                <ellipse cx="56.265" cy="12.521" fill="#461D18" rx="12.503" ry="10.955"/>
            </g>
        </g>
        <g filter="url(#l)" transform="translate(323.895 310.692)">
            <mask id="n" fill="#fff">
                <use xlink:href="#m"/>
            </mask>
            <use fill="#FFEFED" xlink:href="#m"/>
            <g mask="url(#n)">
                <path fill="url(#o)" d="M20.171 61.58h51.74a3.785 3.785 0 0 1 3.603 4.945l-.52 1.617a4.8 4.8 0 0 1-4.57 3.328H21.659a4.8 4.8 0 0 1-4.568-3.328l-.521-1.617a3.785 3.785 0 0 1 3.602-4.946z" opacity=".1" transform="rotate(-20 18.28 41.42)"/>
                <g transform="rotate(-20 18.28 41.42)">
                    <rect width="62.07" height="24.862" x="14.847" y="36.688" fill="#FF9E93" rx="4.8"/>
                    <path fill="#EC958C" d="M67.01 32.545h6.094a4.641 4.641 0 0 1 4.64 4.64v1.04a4.8 4.8 0 0 1-3.457 4.609l-28.395 8.27v.005l-.01-.003-.01.003v-.005l-28.395-8.27a4.8 4.8 0 0 1-3.457-4.609v-1.04a4.641 4.641 0 0 1 4.64-4.64h5.896c-.975-1.447-2.269-3.215-3.88-5.297-3.815-4.934-10.673-8.209-20.647-9.746l.488-3.153c10.71 1.65 18.294 5.272 22.68 10.944 2.349 3.037 4.053 5.419 5.145 7.252h35.454c-.633-4.493-2.915-8.755-6.895-12.818C51.993 14.714 44.538 9.122 34.55 2.975L36.22.257c10.191 6.272 17.84 12.01 22.958 17.236 4.565 4.66 7.192 9.69 7.832 15.052z"/>
                </g>
            </g>
        </g>
        <g filter="url(#p)" transform="translate(323.895 500.368)">
            <mask id="r" fill="#fff">
                <use xlink:href="#q"/>
            </mask>
            <use fill="#FFEFED" xlink:href="#q"/>
            <g mask="url(#r)">
                <path fill="#FF9E93" d="M32.699 10.072l-16.844-2.97-3.992 22.637 43.496 7.669c-.597-5.506-3.322-8.687-8.174-9.543-4.852-.855-8.711-2.725-11.578-5.61-1.196-1.365-1.717-2.48-1.564-3.346l1.47-8.34-2.814-.497z"/>
                <path fill="#7B2C22" d="M55.616 37.093l-.672 3.814-44.077-7.772.673-3.813z"/>
                <path fill="url(#s)" d="M3.197 26.364h44.756l-3.197 10.564H0z" opacity=".1" transform="rotate(10 -30.876 73.736)"/>
                <g>
                    <path fill="#FF9E93" d="M69.009 40.97l16.844 2.97-3.992 22.637-43.495-7.67c2.444-4.97 6.093-7.027 10.945-6.171 4.852.855 9.118.418 12.798-1.312 1.59-.874 2.462-1.744 2.615-2.61l1.47-8.34 2.815.496z"/>
                    <path fill="#7B2C22" d="M38.232 58.524l-.673 3.813 44.077 7.772.672-3.814z"/>
                    <path fill="url(#s)" d="M3.517 26.364h44.756l-3.197 10.564H.32z" opacity=".1" transform="rotate(10 -184.247 238.896)"/>
                </g>
            </g>
        </g>
        <g filter="url(#t)" transform="translate(323.895 405.53)">
            <mask id="v" fill="#fff">
                <use xlink:href="#u"/>
            </mask>
            <use fill="#FFEFED" xlink:href="#u"/>
            <g mask="url(#v)">
                <path fill="#FFDDD9" d="M0 60.184h95.906v19.848H0z"/>
                <path fill="#DA7C72" d="M42.628 64.948v10.776H24.22c-.572-1.503.277-2.779 2.55-3.826 3.408-1.571 8.558.302 9.612-1.762.703-1.376.913-3.106.628-5.188h5.618zM53.068 64.986V75.76h18.408c.573-1.503-.277-2.778-2.55-3.826-3.408-1.57-8.557.303-9.612-1.762-.703-1.376-.912-3.105-.628-5.187h-5.618z"/>
                <path fill="#F0AEA7" d="M47.413 4.162h13.651l4.976 41.204 6.801 21.07H49.693V19.805l-.927.013v.02l-.677-.01-.676.01v-.02l-.927-.013v46.631H23.337l6.802-21.07 4.975-41.204h12.299z"/>
                <path fill="#FFD3CF" d="M31.969 0h31.969v4.162H31.969z"/>
            </g>
        </g>
        <path stroke="#FFF" stroke-dasharray="4.8" stroke-linecap="round" stroke-width="1.2" d="M267.754 182.23l-17.782 69.801h68.443M316.229 355.378h-66.257v-95.706M316.229 449.615h-66.257v-85.28M316.229 546.033h-66.257v-85.281"/>
        <g stroke="#FFF" stroke-dasharray="2.4" stroke-linecap="round" stroke-width="1.2">
            <path d="M284.947 139.42c3.973 0 7.193-3.225 7.193-7.203s-3.22-7.203-7.193-7.203c-3.972 0-7.193 3.225-7.193 7.203s3.22 7.203 7.193 7.203z"/>
            <path d="M284.947 146.623c7.946 0 14.386-6.45 14.386-14.406s-6.44-14.406-14.386-14.406c-7.945 0-14.386 6.45-14.386 14.406s6.441 14.406 14.386 14.406z" opacity=".75"/>
            <path d="M284.947 153.826c11.918 0 21.58-9.675 21.58-21.609 0-11.934-9.662-21.608-21.58-21.608-11.917 0-21.579 9.674-21.579 21.608 0 11.934 9.662 21.609 21.58 21.609z" opacity=".5"/>
            <path d="M284.947 168.232c19.863 0 35.965-16.125 35.965-36.015s-16.102-36.014-35.965-36.014c-19.863 0-35.965 16.124-35.965 36.014 0 19.89 16.102 36.015 35.965 36.015z" opacity=".25"/>
            <path d="M284.947 175.434c23.836 0 43.158-19.349 43.158-43.217S308.783 89 284.947 89c-23.835 0-43.158 19.349-43.158 43.217s19.323 43.217 43.158 43.217z" opacity=".5"/>
        </g>
        <g stroke="#FFF" stroke-dasharray="2.4" stroke-linecap="round" stroke-width="1.2">
            <path d="M131.877 353.666a4.799 4.799 0 0 0 4.796-4.802 4.799 4.799 0 0 0-4.796-4.802 4.799 4.799 0 0 0-4.795 4.802 4.799 4.799 0 0 0 4.795 4.802z"/>
            <path d="M131.877 356.067c3.973 0 7.193-3.225 7.193-7.203s-3.22-7.203-7.193-7.203c-3.972 0-7.193 3.225-7.193 7.203s3.22 7.203 7.193 7.203z" opacity=".75"/>
            <path d="M131.877 358.468c5.297 0 9.59-4.3 9.59-9.604 0-5.304-4.293-9.604-9.59-9.604s-9.59 4.3-9.59 9.604c0 5.304 4.293 9.604 9.59 9.604z" opacity=".5"/>
        </g>
        <path stroke="#FFF" stroke-dasharray="4.8" stroke-linecap="round" stroke-width="1.2" d="M141.468 335.5l109.504-161.066"/>
    </g>
</svg>
