<svg xmlns="http://www.w3.org/2000/svg" xmlns:xlink="http://www.w3.org/1999/xlink" width="211" height="410" viewBox="0 0 211 410">
    <defs>
        <path id="a" d="M0 .646h601v347H0z"/>
        <path id="c" d="M.646 0h601v417h-601z"/>
        <filter id="e" width="120.8%" height="113.1%" x="-10.1%" y="-6.5%" filterUnits="objectBoundingBox">
            <feOffset dy="2" in="SourceAlpha" result="shadowOffsetOuter1"/>
            <feGaussianBlur in="shadowOffsetOuter1" result="shadowBlurOuter1" stdDeviation="4"/>
            <feColorMatrix in="shadowBlurOuter1" result="shadowMatrixOuter1" values="0 0 0 0 0.470588235 0 0 0 0 0.156862745 0 0 0 0 0.117647059 0 0 0 0.257102273 0"/>
            <feMerge>
                <feMergeNode in="shadowMatrixOuter1"/>
                <feMergeNode in="SourceGraphic"/>
            </feMerge>
        </filter>
        <path id="f" d="M0 0h3.81v1.519H0z"/>
    </defs>
    <g fill="none" fill-rule="evenodd">
        <path fill="#FFF" d="M0-295h1280v705H0z"/>
        <path fill="#EF6B5D" d="M0-295h601v708H0z"/>
        <g transform="translate(0 -295.646)">
            <mask id="b" fill="#fff">
                <use xlink:href="#a"/>
            </mask>
            <path fill="#8F4037" d="M502.354-154v469h-469z" mask="url(#b)" transform="rotate(172 267.854 80.5)"/>
        </g>
        <g transform="translate(-.646 -7)">
            <mask id="d" fill="#fff">
                <use xlink:href="#c"/>
            </mask>
            <path fill="#8F4037" d="M188 37.446v469h-469z" mask="url(#d)" transform="rotate(-8 -46.5 271.946)"/>
        </g>
        <g filter="url(#e)" transform="rotate(-9 318.551 -825.697)">
            <rect width="154.649" height="286.914" fill="#B3493D" rx="13.2"/>
            <path fill="#FFF" d="M49.85 7.203v.52a6.844 6.844 0 0 0 6.845 6.845H98.05a6.844 6.844 0 0 0 6.844-6.844v-.521h34.52a6.844 6.844 0 0 1 6.844 6.844v258.82a6.844 6.844 0 0 1-6.844 6.844H14.037a6.844 6.844 0 0 1-6.844-6.844V14.047a6.844 6.844 0 0 1 6.844-6.844h35.814z"/>
            <path fill="#FFC0BA" d="M7.193 49.22h139.064v180.428H7.193z"/>
            <path fill="#E06153" d="M7.193 155.279h139.064v74.66H7.193z"/>
            <path fill="#FF9E93" d="M53.836 186.353l6.697-2.982 4.006 9-17.291 7.698c-.323-2.351.48-3.956 2.409-4.815 1.929-.86 3.34-2.037 4.233-3.534.356-.691.457-1.21.303-1.553l-1.476-3.316 1.12-.498z"/>
            <path fill="#7B2C22" d="M47.108 199.965l.675 1.516 17.523-7.801-.675-1.516z"/>
            <path fill="#C25144" d="M58.06 107.18l19.206 5.34-2.05 6.933-19.206-5.341a3.556 3.556 0 0 1-2.458-4.435 3.674 3.674 0 0 1 4.508-2.497z"/>
            <path fill="#F0AEA7" d="M79.965 146.204l-.611 2.433-31.769 1.895-8.516 47.79 24.808-16.812-1.92-19.23 18.728-5.103-12.611 25.973-2.995 31.101 25.366-6.83-8.253-24.27 18.736-28.94z"/>
            <g transform="rotate(-27 253.894 -30.154)">
                <g transform="translate(5.888 2.223)">
                    <mask id="g" fill="#fff">
                        <use xlink:href="#f"/>
                    </mask>
                    <path fill="#9E3225" d="M1.905 6.299c-1.722 0-3.117-1.327-3.117-2.964S.183.37 1.905.37c1.721 0 3.117 1.327 3.117 2.964S3.626 6.299 1.905 6.299zm0-.37c1.53 0 2.77-1.162 2.77-2.594 0-1.433-1.24-2.594-2.77-2.594s-2.77 1.161-2.77 2.594c0 1.432 1.24 2.593 2.77 2.593z" mask="url(#g)"/>
                </g>
                <path fill="#9E3225" d="M3.117 5.928C1.396 5.928 0 4.601 0 2.964S1.396 0 3.117 0s3.117 1.327 3.117 2.964-1.396 2.964-3.117 2.964zm0-.37c1.53 0 2.77-1.161 2.77-2.594 0-1.432-1.24-2.593-2.77-2.593S.347 1.53.347 2.964s1.24 2.594 2.77 2.594zM12.468 5.928c-1.722 0-3.117-1.327-3.117-2.964S10.746 0 12.468 0c1.721 0 3.117 1.327 3.117 2.964s-1.396 2.964-3.117 2.964zm0-.37c1.53 0 2.77-1.161 2.77-2.594 0-1.432-1.24-2.593-2.77-2.593s-2.77 1.16-2.77 2.593 1.24 2.594 2.77 2.594z"/>
                <ellipse cx="3.117" cy="2.964" fill="#461D18" rx="2.771" ry="2.594"/>
                <ellipse cx="12.468" cy="2.964" fill="#461D18" rx="2.771" ry="2.594"/>
            </g>
            <path fill="#78281E" d="M94.154 124.832l-31.132 1.756-3.333-19.1 39.655 9.672 1.601 1.202 6.171-2.218h4.626l23.147 39.858-22.095 1.934-2.885-24.49L105.784 145v12.935L79.62 146.317l14.534-21.485z"/>
            <path fill="#FFF" d="M7.193 105.85a10.527 10.527 0 0 1 2.095-.208c3.264 0 6.04 1.46 7.062 3.495 3.91.172 7.005 2.441 7.005 5.215H7.193v-8.502zm2.285 5.018c.143.112.28.228.409.348.129-.12.265-.236.408-.348h-.817z"/>
            <g fill="#FFF" opacity=".8">
                <path d="M30.681 78.13c0-6.185 7.422-11.2 16.577-11.2 9.155 0 16.576 5.015 16.576 11.2H30.681z"/>
                <path d="M57.203 78.13c0-6.185 7.422-11.2 16.577-11.2 9.155 0 16.576 5.015 16.576 11.2H57.203z"/>
                <path d="M42.616 70.664c0-6.185 7.422-11.2 16.577-11.2 9.155 0 16.576 5.015 16.576 11.2H42.616z"/>
            </g>
            <path fill="#78281E" d="M18.249 38.31h39.783v3.734H18.249z"/>
            <path fill="#C25144" d="M18.249 251.092h39.783v2.489H18.249z"/>
            <path fill="#E5938A" d="M18.249 257.313h118.107v1.244H18.249zM18.249 263.535h79.567v1.244H18.249z"/>
            <path fill="#E5938A" fill-rule="nonzero" d="M23.505 235.77a2.842 2.842 0 0 0-1.001-.647 3.124 3.124 0 0 0-2.246.002c-.377.144-.717.36-1.012.65-.326.309-.58.685-.757 1.108-.16.413-.24.848-.24 1.276 0 .422.078.844.234 1.262.158.41.417.792.75 1.121l4.253 4.185a.47.47 0 0 0 .352.143.48.48 0 0 0 .361-.154l4.242-4.174a3.24 3.24 0 0 0 .757-1.108c.161-.431.24-.853.24-1.275 0-.428-.08-.863-.236-1.266a2.895 2.895 0 0 0-.77-1.128 3.123 3.123 0 0 0-1.005-.64 3.156 3.156 0 0 0-2.261 0c-.377.144-.717.36-1.012.65l-.313.314-.336-.319zm-4.598 2.389c0-.336.064-.68.186-.996.135-.324.334-.618.593-.864.233-.228.497-.396.795-.51a2.51 2.51 0 0 1 1.807.001c.283.105.539.273.778.506l.402.38a.535.535 0 0 0 .75.002l.383-.386c.227-.22.49-.389.788-.503a2.542 2.542 0 0 1 1.815 0c.282.108.552.282.799.512.27.245.47.538.59.858.123.32.187.664.187 1 0 .33-.062.663-.188 1-.133.32-.332.613-.591.859l-4.164 4.097-4.158-4.093a2.511 2.511 0 0 1-.585-.866 2.842 2.842 0 0 1-.187-.997zM44.349 242.98a.31.31 0 0 1-.415.328l-1.384-.504a4.353 4.353 0 0 1-6.896-3.533 4.353 4.353 0 0 1 4.351-4.356 4.353 4.353 0 0 1 4.089 5.85l.255 2.215zm-.881-2.22l.019-.147c.163-.424.248-.877.248-1.343a3.731 3.731 0 0 0-3.73-3.733 3.731 3.731 0 0 0-3.73 3.733 3.731 3.731 0 0 0 6.03 2.939.31.31 0 0 1 .3-.048l1.069.39-.206-1.79z"/>
        </g>
    </g>
</svg>
