<svg xmlns="http://www.w3.org/2000/svg" xmlns:xlink="http://www.w3.org/1999/xlink" width="309" height="345" viewBox="0 0 309 345">
    <defs>
        <path id="a" d="M0 .646h601v347H0z"/>
        <path id="c" d="M.646 0h601v417h-601z"/>
        <filter id="e" width="120.8%" height="113.1%" x="-10.1%" y="-6.5%" filterUnits="objectBoundingBox">
            <feOffset dy="2" in="SourceAlpha" result="shadowOffsetOuter1"/>
            <feGaussianBlur in="shadowOffsetOuter1" result="shadowBlurOuter1" stdDeviation="4"/>
            <feColorMatrix in="shadowBlurOuter1" result="shadowMatrixOuter1" values="0 0 0 0 0.470588235 0 0 0 0 0.156862745 0 0 0 0 0.117647059 0 0 0 0.257102273 0"/>
            <feMerge>
                <feMergeNode in="shadowMatrixOuter1"/>
                <feMergeNode in="SourceGraphic"/>
            </feMerge>
        </filter>
    </defs>
    <g fill="none" fill-rule="evenodd">
        <path fill="#FFF" d="M-19 0h1280v705H-19z"/>
        <path fill="#EF6B5D" d="M-19 0h601v708H-19z"/>
        <g transform="translate(-19 -.646)">
            <mask id="b" fill="#fff">
                <use xlink:href="#a"/>
            </mask>
            <path fill="#8F4037" d="M502.354-154v469h-469z" mask="url(#b)" transform="rotate(172 267.854 80.5)"/>
        </g>
        <g transform="translate(-19.646 288)">
            <mask id="d" fill="#fff">
                <use xlink:href="#c"/>
            </mask>
            <path fill="#8F4037" d="M188 37.446v469h-469z" mask="url(#d)" transform="rotate(-8 -46.5 271.946)"/>
        </g>
        <g fill="#FFF" fill-rule="nonzero">
            <path d="M28.137 58H25V41.33h.753l1.243 1.453c.281-.262.589-.51.924-.743a7.07 7.07 0 0 1 1.044-.603c.36-.168.736-.302 1.123-.4a4.791 4.791 0 0 1 1.175-.146c.86 0 1.667.152 2.424.456a5.996 5.996 0 0 1 1.985 1.29 6.032 6.032 0 0 1 1.34 2.013c.327.785.49 1.654.49 2.609 0 .991-.164 1.884-.49 2.676a5.929 5.929 0 0 1-1.34 2.017 5.824 5.824 0 0 1-1.985 1.268 6.652 6.652 0 0 1-2.424.44c-.274 0-.546-.03-.816-.09a5.566 5.566 0 0 1-.798-.242 8.85 8.85 0 0 1-.775-.344c-.255-.128-.5-.26-.736-.395V58zm6.239-10.741c0-.511-.082-.97-.245-1.375a3.053 3.053 0 0 0-.668-1.032 2.883 2.883 0 0 0-.992-.648 3.26 3.26 0 0 0-1.209-.225 3.216 3.216 0 0 0-1.203.226c-.377.15-.706.366-.987.648-.29.296-.518.646-.667 1.031a3.654 3.654 0 0 0-.246 1.375c0 .488.082.936.246 1.341a2.996 2.996 0 0 0 1.654 1.702 3.08 3.08 0 0 0 1.203.236c.415.002.826-.078 1.209-.236a2.982 2.982 0 0 0 1.66-1.702c.163-.405.245-.853.245-1.341zm8.52-9.208c0 .285-.055.552-.166.8-.106.243-.259.463-.45.648-.19.184-.413.331-.667.44-.255.109-.526.163-.815.163a2.112 2.112 0 0 1-1.478-.603 2.102 2.102 0 0 1-.444-.648 1.947 1.947 0 0 1-.166-.8c0-.278.055-.543.166-.794.11-.252.258-.47.445-.654a2.114 2.114 0 0 1 2.292-.44c.255.11.477.256.668.44.392.382.614.903.615 1.448zM42.36 53.4h-3.137v-12.07h3.137V53.4zm21.09 0a5.36 5.36 0 0 1-2.121-.422 5.535 5.535 0 0 1-1.74-1.161 5.462 5.462 0 0 1-1.175-1.719 5.185 5.185 0 0 1-.427-2.096v-3.585h-1.518v-3.065h1.518V36.53h3.102v4.823h4.722v3.065h-4.722v3.585c0 .323.06.625.182.907.238.56.689 1.004 1.255 1.24.289.124.597.186.924.186h2.361V53.4H63.45zm15.911-6.142c0 .901-.164 1.741-.49 2.52a6.293 6.293 0 0 1-1.335 2.016 6.246 6.246 0 0 1-1.979 1.341 6.074 6.074 0 0 1-2.435.49 6.046 6.046 0 0 1-2.424-.49 6.314 6.314 0 0 1-1.984-1.341 6.247 6.247 0 0 1-1.34-2.017 6.438 6.438 0 0 1-.491-2.52c0-.916.164-1.765.49-2.546a6.24 6.24 0 0 1 1.34-2.024 6.236 6.236 0 0 1 1.986-1.335 6.11 6.11 0 0 1 2.423-.485 6.46 6.46 0 0 1 2.435.457 5.89 5.89 0 0 1 1.979 1.296 6.136 6.136 0 0 1 1.335 2.018c.326.785.49 1.658.49 2.62zm-3.136 0c0-.496-.082-.945-.246-1.347a3.194 3.194 0 0 0-.667-1.037 2.886 2.886 0 0 0-.986-.665 3.148 3.148 0 0 0-1.204-.23c-.426 0-.827.076-1.204.23-.37.15-.705.377-.98.665-.284.3-.507.653-.656 1.037-.16.402-.24.85-.24 1.347 0 .466.08.898.24 1.296.16.398.378.743.655 1.037.278.293.605.524.981.693.377.17.778.253 1.204.253.426 0 .827-.078 1.204-.236A2.996 2.996 0 0 0 75.98 48.6c.163-.405.245-.853.245-1.341zm7.972 6.142h-3.114v-12.07h.753l1.027 1.43c.5-.449 1.08-.802 1.71-1.042a5.512 5.512 0 0 1 1.986-.366h2.748v3.065h-2.749a2.387 2.387 0 0 0-1.676.677 2.3 2.3 0 0 0-.502.743c-.121.286-.183.59-.183.913v6.65zm9.696 0h-3.137V36.53h3.137V53.4zm14.2 0h-.753l-1.209-1.656c-.297.262-.61.508-.94.737a6.98 6.98 0 0 1-1.045.598 6.42 6.42 0 0 1-1.123.4 4.725 4.725 0 0 1-1.17.146 6.819 6.819 0 0 1-2.423-.427 5.768 5.768 0 0 1-1.985-1.246 5.839 5.839 0 0 1-1.34-2c-.327-.79-.49-1.687-.49-2.694 0-.94.164-1.802.49-2.587a6.145 6.145 0 0 1 1.34-2.023 6.055 6.055 0 0 1 1.985-1.313 6.305 6.305 0 0 1 2.424-.468c.396 0 .787.05 1.175.147.388.098.764.233 1.129.406.365.173.713.375 1.044.608.33.234.64.485.929.756l1.209-1.432h.753v12.048zm-3.136-6.142c0-.42-.084-.835-.246-1.223a3.508 3.508 0 0 0-.667-1.048 3.315 3.315 0 0 0-.987-.732 2.704 2.704 0 0 0-1.203-.277c-.426 0-.827.072-1.203.215-.37.138-.704.353-.981.63a2.954 2.954 0 0 0-.656 1.032c-.16.41-.24.877-.24 1.403s.08.994.24 1.403c.16.41.378.753.656 1.032.277.277.604.488.98.63.377.144.778.214 1.204.214a2.7 2.7 0 0 0 1.203-.276c.373-.18.707-.43.987-.732.281-.304.504-.654.667-1.048.163-.388.246-.803.246-1.223zm17.736 0c0 .946-.164 1.81-.49 2.592a6.13 6.13 0 0 1-1.335 2.012 5.962 5.962 0 0 1-1.98 1.301 6.387 6.387 0 0 1-2.434.463 6.207 6.207 0 0 1-4.41-1.792 6.178 6.178 0 0 1-1.339-2.012c-.327-.778-.49-1.632-.49-2.564v-10.73h3.125v5.636c.167-.21.37-.399.61-.564.24-.165.498-.3.776-.406a5.15 5.15 0 0 1 .86-.242 4.64 4.64 0 0 1 .868-.084c.866 0 1.678.16 2.435.479.743.31 1.416.764 1.979 1.335a6.352 6.352 0 0 1 1.334 2.023c.327.778.49 1.628.49 2.553zm-3.137 0c0-.466-.082-.9-.245-1.302a3.26 3.26 0 0 0-.668-1.042 3.059 3.059 0 0 0-.986-.688 2.96 2.96 0 0 0-1.203-.248c-.426 0-.827.092-1.204.276-.372.181-.707.43-.986.733a3.42 3.42 0 0 0-.662 1.048 3.23 3.23 0 0 0-.24 1.223c0 .466.08.898.24 1.296a3.134 3.134 0 0 0 1.648 1.73 2.9 2.9 0 0 0 1.204.253 2.9 2.9 0 0 0 1.203-.253c.371-.165.706-.401.986-.693.287-.301.514-.653.668-1.037.163-.398.245-.83.245-1.296zm11.565 6.142h-7.117v-3.065h7.118a.754.754 0 0 0 .548-.225.736.736 0 0 0 .227-.541c0-.219-.076-.362-.227-.429a1.342 1.342 0 0 0-.548-.102h-3.24a3.797 3.797 0 0 1-1.517-.304 3.912 3.912 0 0 1-1.231-.828 3.897 3.897 0 0 1-.827-1.223 3.736 3.736 0 0 1-.303-1.499c0-.534.101-1.033.303-1.499a3.83 3.83 0 0 1 2.059-2.034c.48-.2.996-.302 1.517-.299h6.307v3.065h-6.307a.754.754 0 0 0-.548.226.733.733 0 0 0-.228.541c0 .218.076.404.228.558a.74.74 0 0 0 .548.23h3.239a4.25 4.25 0 0 1 1.506.266c.454.166.872.417 1.231.738.353.32.637.707.833 1.138.205.444.308.928.308 1.455 0 .533-.103 1.03-.308 1.493-.2.453-.481.865-.833 1.217a3.855 3.855 0 0 1-2.738 1.121zm-84.55.005H44.66V36.534h3.136v10.64l4.642-5.817h3.582l-4.05 5.027 4.05 7.022h-3.582l-2.476-4.385-2.167 2.84-1.222 1.544z"/>
            <path d="M46.566 53.496h-1.948V51.3l3.192-4.167 4.724-5.936h3.644l-4.12 5.132-2.043 2.692-2.205 2.899z"/>
        </g>
        <path fill="#78281E" d="M463.24 141.953l52.724-31.789 49.643 19.824 101.662 241.575-73.459 35.134-66.136-196.979 26.026 162.19 45.288 63.98-173.63-24.401-173.629-24.402 61.17-49.02 69.722-148.732L264.753 360.45l-60.93-54.021 164.312-204.195 53.184-5.372 41.92 45.09z"/>
        <g filter="url(#e)" transform="rotate(-9 2183.217 -557.488)">
            <rect width="154.649" height="286.914" fill="#B3493D" rx="13.2"/>
            <path fill="#FFF" d="M49.85 7.203v.52a6.844 6.844 0 0 0 6.845 6.845H98.05a6.844 6.844 0 0 0 6.844-6.844v-.521h34.52a6.844 6.844 0 0 1 6.844 6.844v258.82a6.844 6.844 0 0 1-6.844 6.844H14.037a6.844 6.844 0 0 1-6.844-6.844V14.047a6.844 6.844 0 0 1 6.844-6.844h35.814z"/>
        </g>
        <path stroke="#FFF" stroke-dasharray="4.8" stroke-linecap="round" stroke-width="1.2" d="M249.468 431.5l109.504-161.066"/>
    </g>
</svg>
