<?xml version="1.0" encoding="UTF-8"?>
<svg width="110px" height="22px" viewBox="0 0 110 22" version="1.1" xmlns="http://www.w3.org/2000/svg" xmlns:xlink="http://www.w3.org/1999/xlink">
    <!-- Generator: Sketch 55.2 (78181) - https://sketchapp.com -->
    <title>piktorlabs-logo-white@1.5x</title>
    <desc>Created with Sketch.</desc>
    <g id="Home" stroke="none" stroke-width="1" fill="none" fill-rule="evenodd">
        <g id="Desktop-Project-2-Vera" transform="translate(-44.000000, -36.000000)" fill="#FFFFFF" fill-rule="nonzero">
            <g id="piktorlabs-logo-white" transform="translate(44.000000, 36.000000)">
                <path d="M3.13680365,21.9994001 L0,21.9994001 L0,5.33098841 L0.752784308,5.33098841 L1.99609258,6.78445808 C2.27717253,6.5217178 2.58496418,6.27337423 2.92007461,6.04062713 C3.24984652,5.81072777 3.59898818,5.60923327 3.96365221,5.438364 C4.32409909,5.26954851 4.70021666,5.13555573 5.08675783,5.03825494 C5.47079039,4.94107697 5.86564708,4.89188821 6.2620727,4.89188821 C7.12109673,4.89188821 7.92912569,5.04365372 8.6855525,5.3477846 C9.427901,5.64273475 10.1029101,6.08167745 10.6707176,6.63869121 C11.2371271,7.19476482 11.6833339,7.8654124 12.0105522,8.65063394 C12.3377706,9.43585549 12.5010762,10.3050579 12.5010762,11.2600409 C12.5010762,12.2510157 12.3371635,13.1436128 12.0105522,13.9360327 C11.6833339,14.7290525 11.2371271,15.4014997 10.6701105,15.9533742 C10.1033995,16.5058337 9.42793591,16.9374479 8.6855525,17.221486 C7.9129398,17.517486 7.09070862,17.6666661 6.2620727,17.6611862 C5.98827776,17.6611862 5.71630407,17.6311929 5.44615164,17.5712065 C5.17423153,17.5104725 4.90736179,17.4294588 4.64783603,17.3288616 C4.3839679,17.2266941 4.12525067,17.1119864 3.8725896,16.9851397 C3.61761426,16.8573688 3.37235229,16.7253988 3.13680365,16.5904294 L3.13680365,22 L3.13680365,21.9994001 Z M9.37580714,11.2588412 C9.37580714,10.7477573 9.2938508,10.2894615 9.13054517,9.88395365 C8.98064943,9.49904898 8.75349559,9.14808743 8.46275263,8.85218814 C8.18130185,8.57040615 7.8434435,8.34975304 7.47077718,8.20433538 C7.08621237,8.05342387 6.67584842,7.97705208 6.2620727,7.9793256 C5.84999357,7.97685188 5.44134148,8.05345413 5.05883197,8.20493523 C4.68243982,8.35490116 4.35340022,8.57085207 4.0717132,8.852788 C3.78125692,9.1485654 3.55431587,9.49931319 3.40452775,9.88395365 C3.24122211,10.2894615 3.15926575,10.7477573 3.15926575,11.2588412 C3.15926575,11.7471302 3.24122211,12.1946285 3.40452775,12.6001363 C3.56844046,13.0056442 3.79063325,13.3511656 4.07232028,13.6367007 C4.35261706,13.9216512 4.68812549,14.1478994 5.05883197,14.3019496 C5.43522412,14.4597137 5.83589964,14.5383396 6.2620727,14.5383396 C6.67694603,14.5404894 7.08801828,14.4601096 7.47077718,14.3019496 C7.84385257,14.1489715 8.18155394,13.9226373 8.46335971,13.6367007 C8.75306731,13.3382743 8.97985624,12.9859265 9.13054517,12.6001363 C9.29445788,12.1946285 9.37580714,11.7471302 9.37580714,11.2588412 Z M17.8962328,2.05093387 C17.8962328,2.33646898 17.8409881,2.60280845 17.7304989,2.85115202 C17.6239285,3.09372845 17.4709794,3.31370195 17.2800424,3.49900478 C17.0900251,3.68316291 16.8672252,3.83012951 16.6128569,3.93870483 C16.3578816,4.04788002 16.086515,4.10246762 15.797543,4.10246762 C15.5085709,4.10246762 15.2365972,4.04788002 14.9816219,3.93870483 C14.7347716,3.83502488 14.5101886,3.68579422 14.3199002,3.49900478 C14.1320535,3.31242972 13.9813155,3.09267449 13.8755146,2.85115202 C13.7644194,2.59876556 13.7081647,2.32615089 13.7103878,2.05093387 C13.7103878,1.773197 13.7650253,1.50805726 13.8755146,1.25671438 C13.9860039,1.00477164 14.1341325,0.787021131 14.3205073,0.602862986 C14.5068821,0.41870484 14.7272537,0.272338106 14.982229,0.163162918 C15.2365972,0.0539877301 15.5085709,0 15.797543,0 C16.086515,0 16.3584887,0.0539877301 16.6128569,0.163162918 C16.8678323,0.272338106 17.0900251,0.41870484 17.2806495,0.602862986 C17.6734254,0.984883791 17.8951067,1.50635737 17.8962328,2.05093387 Z M17.3601775,17.4014451 L14.2233738,17.4014451 L14.2233738,5.33038854 L17.3601775,5.33038854 L17.3601775,17.4008453 L17.3601775,17.4014451 Z M38.4502798,17.4015561 C37.7211215,17.4061348 36.9988209,17.2621676 36.3285208,16.9785412 C35.6788729,16.7049409 35.0882668,16.3109317 34.5886177,15.817805 C34.0896195,15.324276 33.6908711,14.7409032 33.41391,14.0991956 C33.127078,13.4368241 32.9815848,12.723116 32.9865227,12.0026721 L32.9865227,8.41848671 L31.4688124,8.41848671 L31.4688124,5.35318336 L32.9865227,5.35318336 L32.9865227,0.529679619 L36.0887226,0.529679619 L36.0887226,5.35318336 L40.8106229,5.35318336 L40.8106229,8.41848671 L36.0887226,8.41848671 L36.0887226,12.0026721 C36.0887226,12.3259986 36.149431,12.6283299 36.2708479,12.9102659 C36.5090723,13.4695851 36.9595237,13.9144637 37.5256908,14.1495842 C37.8146627,14.273756 38.1230615,14.3355419 38.4496727,14.3355419 L40.81123,14.3355419 L40.81123,17.4008453 L38.4496727,17.4008453 L38.4502798,17.4015561 Z M54.3613475,11.2588412 C54.3613475,12.1604363 54.1974347,13.0002454 53.8708236,13.7782686 C53.5436053,14.5556919 53.0992196,15.2281391 52.5364526,15.7950102 C51.9707464,16.3643654 51.2986333,16.8198779 50.5573584,17.1363054 C49.7890865,17.4654496 48.9596998,17.6323779 48.1223441,17.6263939 C47.288585,17.6316849 46.4629082,17.464754 45.6982571,17.1363054 C44.9558557,16.8190123 44.2821095,16.3636503 43.7136991,15.7950102 C43.1385655,15.2149378 42.6832755,14.5297342 42.3732575,13.7776687 C42.0466461,13.0002454 41.8827335,12.1604363 41.8827335,11.2588412 C41.8827335,10.3422495 42.0466461,9.49344241 42.3732575,8.71182003 C42.7004758,7.93019768 43.1472896,7.25595093 43.7136991,6.68847989 C44.2815567,6.1204259 44.955793,5.66690929 45.6988642,5.35318336 C46.464257,5.02832816 47.2893463,4.86331238 48.1223441,4.86837519 C48.9892602,4.86837519 49.8009316,5.0208589 50.5567513,5.32498977 C51.298696,5.61953019 51.9720999,6.06040515 52.5358455,6.6206953 C53.0992196,7.18096796 53.5436053,7.85341513 53.8708236,8.63863667 C54.1974347,9.42385821 54.3613475,10.2972597 54.3613475,11.2588412 Z M51.2245439,11.2588412 C51.2245439,10.7627539 51.1425874,10.3140559 50.9792819,9.91214724 C50.8268274,9.52706184 50.6002505,9.17483988 50.3120964,8.87498296 C50.0337769,8.58786663 49.6977404,8.36146648 49.3255847,8.21033402 C48.9439521,8.05533711 48.5349486,7.97683383 48.1223441,7.97932619 C47.696171,7.97932619 47.2948883,8.05616905 46.9184962,8.21033402 C46.5476786,8.36067396 46.2134687,8.58723758 45.9380553,8.87498296 C45.6535179,9.17543085 45.4308336,9.52769203 45.2824045,9.91214724 C45.1221343,10.3140559 45.0426063,10.7627539 45.0426063,11.2588412 C45.0426063,11.7249352 45.1221343,12.1568371 45.2817974,12.5545467 C45.4414605,12.953456 45.6600109,13.2983776 45.9374482,13.5923108 C46.2154928,13.8850443 46.542104,14.1159918 46.9184962,14.2851534 C47.2948883,14.4543149 47.696171,14.5382958 48.1223441,14.5382958 C48.5479099,14.5382958 48.9491925,14.4597137 49.3255847,14.3019496 C49.6962911,14.1478994 50.0317996,13.9216512 50.3120964,13.6367007 C50.6020219,13.3383275 50.8290195,12.9859761 50.979889,12.6001363 C51.1425874,12.1946285 51.2245439,11.7471302 51.2245439,11.2588412 Z M59.1973796,17.4014451 L56.0830381,17.4014451 L56.0830381,5.33038854 L56.8358224,5.33038854 L57.8630087,6.76166326 C58.3627419,6.31211628 58.9429055,5.95855632 59.5737718,5.7191002 C60.2066726,5.47608872 60.8799325,5.35198965 61.5589369,5.35318336 L64.3072067,5.35318336 L64.3072067,8.41848671 L61.5583298,8.41848671 C61.2317184,8.41848671 60.9233198,8.47847307 60.6343477,8.5984458 C60.3453757,8.71841854 60.09465,8.88398091 59.8815634,9.09453306 C59.669084,9.30448534 59.5015288,9.5528289 59.3801119,9.838364 C59.258695,10.1238991 59.1973796,10.42803 59.1973796,10.7513565 L59.1973796,17.4008453 L59.1973796,17.4014451 Z M68.8925131,17.4014451 L65.7557093,17.4014451 L65.7557093,0.529679619 L68.8925131,0.529679619 L68.8925131,17.4014451 Z M83.0928177,17.4014451 L82.3400334,17.4014451 L81.1313289,15.7446217 C80.8344648,16.007362 80.5212093,16.2533061 80.1903484,16.482454 C79.8594877,16.7116019 79.5116284,16.9107566 79.1461638,17.0799182 C78.7819133,17.2490797 78.4073425,17.3822495 78.0230582,17.4800272 C77.6411268,17.577396 77.2482528,17.6265762 76.8538142,17.6263944 C75.99479,17.6263944 75.1867612,17.4836264 74.4303343,17.1986912 C73.6889147,16.9227529 73.0131001,16.4986024 72.4451692,15.9527744 C71.8787598,15.4080982 71.432553,14.7410498 71.1053345,13.9528289 C70.7781162,13.1634083 70.6148107,12.2660123 70.6148107,11.259441 C70.6148107,10.3194547 70.7787233,9.45745058 71.1053345,8.67222904 C71.432553,7.8870075 71.8787598,7.21276073 72.4457763,6.64948876 C73.0123557,6.08560776 73.6870253,5.63900243 74.4303343,5.33578732 C75.1867612,5.02445808 75.99479,4.86849352 76.8538142,4.86849352 C77.2496329,4.86849352 77.6412023,4.91768235 78.0285219,5.01486026 C78.4170557,5.11263803 78.7934479,5.24820723 79.1576983,5.42096796 C79.523163,5.5937287 79.8710222,5.79648262 80.201883,6.02922971 C80.5321368,6.26257668 80.8423568,6.51391956 81.1307218,6.78505794 L82.3400334,5.35318336 L83.0928177,5.35318336 L83.0928177,17.4014451 Z M79.9566218,11.2588412 C79.9568168,10.8393821 79.8734799,10.4239842 79.7113592,10.036319 C79.5533659,9.6504778 79.3272549,9.2954405 79.0435665,8.98775732 C78.7639222,8.68501953 78.4293018,8.43678482 78.0570548,8.25592365 C77.6832839,8.07229911 77.27123,7.97759801 76.8538142,7.97936164 C76.4282482,7.97936164 76.0269656,8.05077029 75.6505734,8.19353783 C75.2813661,8.33159689 74.9467123,8.54686199 74.6695255,8.82459441 C74.3920881,9.10233129 74.1735377,9.44605318 74.0138747,9.85576006 C73.8542116,10.2654669 73.7740764,10.7327607 73.7740764,11.259441 C73.7740764,11.7849216 73.8542116,12.2528153 74.0138747,12.6619223 C74.1735377,13.0716292 74.3920881,13.4153511 74.6695255,13.6936878 C74.946963,13.9714247 75.2741813,14.1819768 75.6505734,14.3247444 C76.0269656,14.4675119 76.4276411,14.5382958 76.8538142,14.5382958 C77.2799871,14.5382958 77.6806627,14.4465167 78.0570548,14.2623586 C78.4295688,14.0813825 78.7644032,13.8329383 79.0441736,13.529925 C79.3252536,13.2257941 79.5480535,12.8760736 79.7113592,12.4819632 C79.873558,12.0941115 79.9568965,11.6785021 79.9566218,11.2588412 Z M97.6925836,11.2588412 C97.6925836,12.205426 97.5292779,13.0698296 97.2020596,13.8508521 C96.8754484,14.6324744 96.4310628,15.303122 95.8676887,15.8627948 C95.3032258,16.4237065 94.6301206,16.8664262 93.8885946,17.164499 C93.1321677,17.4728289 92.3204963,17.6265282 91.4541872,17.6265282 C89.8007948,17.6372297 88.2122261,16.9916813 87.0449353,15.8346012 C86.4785257,15.2707294 86.0317118,14.6006817 85.7051007,13.8226585 C85.3778824,13.0452352 85.2145767,12.1910293 85.2145767,11.2588412 L85.2145767,0.529679619 L88.3398457,0.529679619 L88.3398457,6.16479891 C88.5067938,5.95484662 88.710167,5.76648943 88.9499653,5.60092706 C89.1897635,5.43596455 89.4477743,5.30099522 89.7258187,5.19541922 C90.0032562,5.09044308 90.290407,5.00946148 90.586664,4.9530743 C90.8835281,4.89668712 91.1725002,4.86909339 91.4535801,4.86909339 C92.3204963,4.86909339 93.1321677,5.02805726 93.8885946,5.3477846 C94.6318296,5.65798489 95.3047362,6.11199557 95.8676887,6.68308111 C96.4304557,7.25415133 96.8754484,7.92839809 97.2020596,8.70642127 C97.5292779,9.48384459 97.6925836,10.3344513 97.6925836,11.2588412 Z M94.5563871,11.2588412 C94.5563871,10.793347 94.4744308,10.3590457 94.3111251,9.95713701 C94.1575938,9.57084483 93.930952,9.21700965 93.6433326,8.91457396 C93.363981,8.62294218 93.0286127,8.38924309 92.6568209,8.2271302 C92.2779855,8.0613967 91.8678783,7.97695687 91.4535801,7.97933552 C91.0280141,7.97933552 90.6267315,8.07116564 90.2503394,8.25532379 C89.8780423,8.43636352 89.5434184,8.68480429 89.2638277,8.98775732 C88.980743,9.29474721 88.7565208,9.65004871 88.602106,10.036319 C88.4437034,10.4248794 88.362495,10.8399413 88.3629133,11.2588412 C88.3629133,11.7249352 88.4424429,12.1568371 88.602106,12.5545467 C88.7617691,12.953456 88.9821406,13.2983776 89.2638277,13.5923108 C89.5439875,13.8843947 89.8790706,14.1197288 90.2503394,14.2851534 C90.6267315,14.4543149 91.027407,14.5382958 91.4535801,14.5382958 C91.8797532,14.5382958 92.2804288,14.4543149 92.6568209,14.2851534 C93.0281408,14.1195508 93.3632276,13.8840103 93.6433326,13.591711 C93.9300026,13.2908232 94.156572,12.9391363 94.3111251,12.5551465 C94.4744308,12.1568371 94.5563871,11.7249352 94.5563871,11.259441 L94.5563871,11.2588412 Z M106.12134,17.4014762 L99.004396,17.4014762 L99.004396,14.3361418 L106.121947,14.3361418 C106.334426,14.3361418 106.517158,14.260559 106.669536,14.110593 C106.821308,13.9600273 106.897193,13.7794683 106.897193,13.569516 C106.897193,13.3511656 106.821308,13.2083981 106.669536,13.1412134 C106.496362,13.0693295 106.309722,13.0345718 106.121947,13.0392365 L102.882546,13.0392365 C102.360964,13.0429941 101.844302,12.9394199 101.365443,12.7351057 C100.904952,12.5397261 100.486771,12.2586882 100.133669,11.9072938 C99.7819758,11.5549159 99.5013672,11.13962 99.3068203,10.6835719 C99.1036762,10.2096856 99.000791,9.699745 99.004396,9.18511248 C99.004396,8.65123382 99.1052684,8.15214724 99.3068203,7.68605318 C99.5006272,7.2315629 99.7813764,6.81829924 100.133669,6.46892979 C100.487423,6.1207634 100.905872,5.84334977 101.36605,5.65191547 C101.84564,5.45118744 102.361719,5.34952594 102.882546,5.35308807 L109.19015,5.35308807 L109.19015,8.41848671 L102.882546,8.41848671 C102.670066,8.41848671 102.487334,8.49406952 102.334956,8.64403545 C102.186512,8.78550742 102.103894,8.9813448 102.106692,9.18511248 C102.106692,9.40286299 102.183185,9.58882072 102.334956,9.74298569 C102.486727,9.89715065 102.669459,9.9739332 102.882546,9.9739332 L106.121947,9.9739332 C106.654359,9.9739332 107.155811,10.0621131 107.627515,10.2390729 C108.081889,10.4053114 108.499965,10.6557386 108.859289,10.9769052 C109.212238,11.2966422 109.49563,11.6840191 109.692208,12.1154465 C109.897403,12.5587457 110,13.0434356 110,13.569516 C110,14.1027948 109.896796,14.6006817 109.692208,15.0631766 C109.49293,15.516002 109.210532,15.9284601 108.859289,16.2797001 C108.135862,17.0013651 107.14932,17.4055541 106.12134,17.4014762 Z M21.57152,17.4056442 L19.658598,17.4056442 L19.658598,0.533878663 L22.7947945,0.533878663 L22.7947945,11.1730607 L27.4371669,5.35738242 L31.0189631,5.35738242 L26.9697121,10.3842399 L31.0189631,17.4056442 L27.4371669,17.4056442 L24.9614778,13.0206408 L22.7941874,15.8609952 L21.57152,17.4050443 L21.57152,17.4056442 Z" id="Shape"></path>
                <polygon id="Path" points="21.5655893 17.496063 19.6178344 17.496063 19.6178344 15.3000375 22.809731 11.1333455 27.5336392 5.19685039 31.1783439 5.19685039 27.0579743 10.3286668 25.0150863 13.0207271 22.809731 15.9197747"></polygon>
            </g>
        </g>
    </g>
</svg>